<?xml version="1.0" encoding="UTF-8"?>
<svg xmlns="http://www.w3.org/2000/svg" xmlns:xlink="http://www.w3.org/1999/xlink" width="240pt" height="240pt" viewBox="0 0 240 240" version="1.1">
<g id="surface373578">
<rect x="0" y="0" width="240" height="240" style="fill:rgb(100%,100%,100%);fill-opacity:1;stroke:none;"/>
<path style=" stroke:none;fill-rule:nonzero;fill:rgb(0%,0%,0%);fill-opacity:1;" d="M 191.042969 115.6875 C 178.554688 107.511719 168.957031 102.242188 158.398438 91.199219 C 156.488281 89.289062 154.085938 86.886719 153.113281 86.886719 C 152.15625 85.914062 150.242188 86.886719 148.800781 86.886719 C 143.511719 86.886719 139.6875 84.488281 135.355469 82.554688 C 140.15625 82.085938 145.445312 81.601562 149.289062 81.601562 C 166.554688 81.601562 179.042969 85.914062 187.6875 91.199219 C 190.554688 88.3125 194.886719 85.914062 197.289062 82.085938 C 194.398438 78.710938 192.957031 70.554688 192 66.242188 C 191.042969 62.886719 191.042969 60 190.085938 58.085938 C 184.800781 38.886719 178.554688 24 168 9.601562 C 178.554688 30.242188 188.15625 51.355469 187.199219 81.601562 C 178.554688 78.710938 151.6875 76.800781 148.800781 76.800781 C 144.488281 76.800781 138.710938 78.242188 134.398438 78.242188 C 136.3125 75.355469 137.289062 71.042969 140.644531 70.085938 C 142.554688 69.113281 144.957031 70.085938 147.84375 70.085938 C 156.488281 70.085938 166.085938 69.113281 168.488281 72 C 170.398438 69.113281 174.710938 68.15625 175.6875 65.757812 C 175.6875 64.800781 174.710938 60.488281 173.757812 57.601562 C 172.800781 54.710938 171.84375 51.355469 170.886719 49.445312 C 167.511719 35.042969 160.800781 19.199219 155.511719 7.6875 L 153.601562 4.800781 C 158.886719 22.554688 163.199219 39.84375 163.199219 62.398438 C 153.601562 62.398438 149.757812 62.398438 139.199219 62.398438 C 135.84375 65.289062 132.488281 70.085938 129.601562 72 C 130.554688 67.6875 127.199219 64.800781 124.800781 62.886719 C 125.757812 64.800781 128.15625 70.085938 126.242188 72.957031 C 124.3125 72.957031 125.289062 70.085938 123.355469 70.085938 C 122.398438 71.042969 120.957031 71.511719 120 71.511719 C 118.554688 71.511719 117.601562 71.511719 116.644531 70.085938 C 114.710938 70.085938 115.6875 72.957031 113.757812 72.957031 C 111.84375 70.085938 114.242188 64.800781 115.199219 62.886719 C 112.3125 64.800781 109.445312 67.6875 110.398438 72 C 107.511719 70.085938 104.644531 65.289062 100.800781 62.398438 C 90.242188 62.398438 86.398438 62.398438 76.800781 62.398438 C 76.800781 39.84375 81.113281 22.554688 86.398438 4.800781 L 84.488281 7.6875 C 79.199219 19.199219 72.957031 35.511719 69.113281 49.445312 C 68.15625 51.355469 67.199219 54.710938 66.242188 57.601562 C 65.289062 60.488281 64.3125 64.800781 64.3125 65.757812 C 65.289062 68.644531 69.601562 69.601562 71.511719 72 C 73.445312 69.113281 83.042969 70.085938 92.15625 70.085938 C 95.042969 70.085938 97.445312 69.113281 99.355469 70.085938 C 102.710938 71.042969 103.6875 75.355469 105.601562 78.242188 C 101.289062 78.242188 95.511719 76.800781 91.199219 76.800781 C 88.3125 76.800781 61.445312 78.710938 52.800781 81.601562 C 51.84375 51.355469 61.445312 30.242188 72 9.601562 C 61.445312 24 55.199219 38.886719 49.914062 58.554688 C 48.957031 60.488281 48.957031 62.886719 48 66.710938 C 47.042969 71.042969 45.601562 79.199219 42.710938 82.554688 C 45.601562 85.914062 49.914062 88.800781 52.3125 91.6875 C 60.957031 86.398438 73.445312 82.085938 90.710938 82.085938 C 94.085938 82.085938 99.355469 82.085938 104.644531 83.042969 C 100.3125 84.957031 96.488281 87.355469 91.199219 87.355469 C 89.289062 87.355469 87.84375 86.398438 86.886719 87.355469 C 85.914062 87.355469 83.511719 90.242188 81.601562 91.6875 C 71.042969 102.242188 61.445312 108 48.957031 116.15625 C 45.601562 119.042969 42.710938 121.445312 38.398438 118.085938 C 38.398438 153.601562 46.554688 180 58.085938 204 C 59.511719 205.914062 62.398438 211.199219 62.398438 211.199219 C 53.757812 190.554688 48 166.554688 48 137.757812 C 48 134.886719 47.042969 130.554688 48 128.644531 C 48.957031 125.289062 54.242188 120.488281 57.601562 118.085938 C 67.199219 108.957031 74.398438 105.601562 84.957031 97.445312 C 86.886719 95.511719 88.3125 94.085938 90.242188 93.113281 C 92.15625 92.15625 100.800781 90.710938 104.644531 88.800781 C 100.3125 93.113281 95.042969 101.289062 89.757812 105.601562 C 88.800781 106.554688 87.84375 105.601562 86.398438 105.601562 C 86.398438 148.800781 88.3125 185.289062 99.84375 215.511719 C 102.710938 222.710938 106.085938 229.914062 110.398438 235.199219 C 94.554688 206.398438 96 159.84375 96 115.199219 C 92.644531 112.3125 95.042969 110.886719 97.914062 107.511719 C 101.289062 104.15625 105.601562 95.042969 110.398438 93.113281 C 110.398438 95.042969 109.445312 96.488281 108.488281 97.914062 C 107.511719 99.355469 105.601562 101.757812 105.601562 102.710938 C 104.644531 106.085938 106.554688 113.289062 107.511719 117.113281 C 110.398438 129.601562 113.757812 144 118.085938 153.601562 C 120 153.601562 119.042969 149.757812 120 148.800781 C 120.957031 149.757812 120 153.601562 121.914062 153.601562 C 126.242188 144 130.085938 129.601562 132.488281 117.113281 C 133.445312 113.757812 135.355469 106.554688 134.398438 102.710938 C 134.398438 101.757812 132.488281 99.84375 131.511719 98.398438 C 130.554688 96.957031 129.601562 95.042969 129.601562 93.601562 C 133.914062 95.511719 138.242188 104.15625 142.085938 108 C 144.957031 111.355469 147.355469 113.289062 144 115.6875 C 144 160.3125 145.445312 206.886719 129.601562 235.6875 C 133.914062 230.398438 137.757812 223.199219 140.15625 216 C 151.6875 185.289062 153.601562 148.800781 153.601562 105.601562 C 151.6875 105.601562 150.710938 106.554688 150.242188 105.601562 C 144.957031 101.289062 139.6875 93.113281 135.355469 88.800781 C 139.199219 90.710938 147.84375 92.15625 149.757812 93.113281 C 151.6875 94.085938 153.113281 96 155.042969 97.445312 C 165.601562 105.601562 172.3125 109.445312 182.398438 118.085938 C 185.757812 120.957031 191.042969 125.289062 192 128.644531 C 192.957031 130.554688 192 134.886719 192 137.757812 C 192 166.554688 186.710938 190.554688 177.601562 211.199219 C 177.601562 211.199219 180.488281 205.914062 181.914062 203.042969 C 193.445312 179.042969 201.601562 152.644531 201.601562 117.113281 C 197.289062 120.957031 194.398438 118.085938 191.042969 115.6875 Z M 191.042969 115.6875 "/>
</g>
</svg>
